<?xml version="1.0" encoding="UTF-8" standalone="no"?>
<!-- Created with Inkscape (http://www.inkscape.org/) -->

<svg
   xmlns:dc="http://purl.org/dc/elements/1.1/"
   xmlns:cc="http://creativecommons.org/ns#"
   xmlns:rdf="http://www.w3.org/1999/02/22-rdf-syntax-ns#"
   xmlns:svg="http://www.w3.org/2000/svg"
   xmlns="http://www.w3.org/2000/svg"
   xmlns:sodipodi="http://sodipodi.sourceforge.net/DTD/sodipodi-0.dtd"
   xmlns:inkscape="http://www.inkscape.org/namespaces/inkscape"
   width="85.412308mm"
   height="12.667479mm"
   viewBox="0 0 85.412308 12.667479"
   version="1.1"
   id="svg4659"
   inkscape:version="0.92.2 (5c3e80d, 2017-08-06)"
   sodipodi:docname="logo.svg">
  <defs
     id="defs4653" />
  <sodipodi:namedview
     id="base"
     pagecolor="#ffffff"
     bordercolor="#666666"
     borderopacity="1.0"
     inkscape:pageopacity="0.0"
     inkscape:pageshadow="2"
     inkscape:zoom="1.979899"
     inkscape:cx="-318.97943"
     inkscape:cy="-48.381756"
     inkscape:document-units="mm"
     inkscape:current-layer="layer1"
     showgrid="false"
     inkscape:window-width="3200"
     inkscape:window-height="1745"
     inkscape:window-x="0"
     inkscape:window-y="27"
     inkscape:window-maximized="1"
     fit-margin-top="0"
     fit-margin-left="0"
     fit-margin-right="0"
     fit-margin-bottom="0"
     showguides="true"
     inkscape:guide-bbox="true">
    <sodipodi:guide
       position="82.051746,-8.5526198"
       orientation="1,0"
       id="guide4492"
       inkscape:locked="false" />
    <sodipodi:guide
       position="85.52625,11.492595"
       orientation="1,0"
       id="guide4494"
       inkscape:locked="false" />
  </sodipodi:namedview>
  <metadata
     id="metadata4656">
    <rdf:RDF>
      <cc:Work
         rdf:about="">
        <dc:format>image/svg+xml</dc:format>
        <dc:type
           rdf:resource="http://purl.org/dc/dcmitype/StillImage" />
        <dc:title />
      </cc:Work>
    </rdf:RDF>
  </metadata>
  <g
     inkscape:label="Calque 1"
     inkscape:groupmode="layer"
     id="layer1"
     transform="translate(-54.811707,-23.815068)">
    <path
       inkscape:connector-curvature="0"
       id="path4621"
       style="font-style:normal;font-variant:normal;font-weight:normal;font-stretch:normal;font-size:medium;line-height:125%;font-family:FontAwesome;-inkscape-font-specification:FontAwesome;letter-spacing:0px;word-spacing:0px;fill:#333333;fill-opacity:1;stroke:none;stroke-width:0.19655493px;stroke-linecap:butt;stroke-linejoin:miter;stroke-opacity:1"
       d="M 54.811707,36.482542 V 26.67052 h 4.829354 v 0.632415 Q 60.043508,26.67052 61.49998,26.67052 h 4.465236 v 3.238734 h -5.845052 q -0.229969,0 -0.364118,0.191641 -0.114985,0.172477 -0.114985,0.440774 v 5.940873 z" />
    <path
       inkscape:connector-curvature="0"
       id="path4623"
       style="font-style:normal;font-variant:normal;font-weight:normal;font-stretch:normal;font-size:medium;line-height:125%;font-family:FontAwesome;-inkscape-font-specification:FontAwesome;letter-spacing:0px;word-spacing:0px;fill:#333333;fill-opacity:1;stroke:none;stroke-width:0.19655493px;stroke-linecap:butt;stroke-linejoin:miter;stroke-opacity:1"
       d="m 71.46365,36.482542 q -1.283995,0 -2.203872,-0.172477 -0.900712,-0.172477 -1.494799,-0.574923 -0.574923,-0.421611 -0.862385,-1.07319 -0.268297,-0.670744 -0.268297,-1.648113 v -3.334555 q 0,-1.59062 1.130682,-2.299692 1.130682,-0.709072 3.372881,-0.709072 h 7.033227 q 1.878083,0 2.663811,0.632415 0.785728,0.632416 0.785728,1.973903 v 0.785729 q 0,0.7474 -0.153313,1.226502 -0.153312,0.479103 -0.536595,0.766565 -0.383282,0.268297 -1.07319,0.383282 -0.670743,0.09582 -1.724769,0.09582 H 71.46365 q 0,0.32579 0.05749,0.536595 0.05749,0.191641 0.210805,0.287462 0.153313,0.09582 0.42161,0.134148 0.287462,0.01917 0.728236,0.01917 h 8.144745 v 2.970436 z m 0.249134,-6.803258 q -0.498267,0 -0.498267,0.440775 0,0.498267 0.498267,0.498267 h 4.752698 q 0.440774,0 0.440774,-0.498267 0,-0.440775 -0.440774,-0.440775 z" />
    <path
       inkscape:connector-curvature="0"
       id="path4625"
       style="font-style:normal;font-variant:normal;font-weight:normal;font-stretch:normal;font-size:medium;line-height:125%;font-family:FontAwesome;-inkscape-font-specification:FontAwesome;letter-spacing:0px;word-spacing:0px;fill:#333333;fill-opacity:1;stroke:none;stroke-width:0.19655493px;stroke-linecap:butt;stroke-linejoin:miter;stroke-opacity:1"
       d="m 82.289705,36.482542 v -9.620381 q 0,-0.958205 0.249133,-1.552293 0.268298,-0.594087 0.843221,-0.919877 0.574923,-0.344954 1.4948,-0.459938 0.939042,-0.114985 2.280529,-0.114985 h 3.526195 v 2.548826 H 88.19225 q -0.364118,0 -0.574924,0.01916 -0.210805,0.01916 -0.325789,0.09582 -0.09582,0.05749 -0.134149,0.191641 -0.01916,0.114984 -0.01916,0.32579 v 0.287461 h 3.545359 v 2.548826 h -3.545359 v 6.649945 z" />
    <path
       inkscape:connector-curvature="0"
       id="path4627"
       style="font-style:normal;font-variant:normal;font-weight:normal;font-stretch:normal;font-size:medium;line-height:125%;font-family:FontAwesome;-inkscape-font-specification:FontAwesome;letter-spacing:0px;word-spacing:0px;fill:#333333;fill-opacity:1;stroke:none;stroke-width:0.19655493px;stroke-linecap:butt;stroke-linejoin:miter;stroke-opacity:1"
       d="M 91.352664,36.482542 V 23.815068 h 4.829355 v 12.667474 z" />
    <path
       inkscape:connector-curvature="0"
       id="path4616"
       style="font-style:normal;font-variant:normal;font-weight:normal;font-stretch:normal;font-size:medium;line-height:125%;font-family:FontAwesome;-inkscape-font-specification:FontAwesome;letter-spacing:0px;word-spacing:0px;fill:#333333;fill-opacity:1;stroke:none;stroke-width:0.19655493px;stroke-linecap:butt;stroke-linejoin:miter;stroke-opacity:1"
       d="m 117.35503,36.482542 q -1.36065,0 -2.28053,-0.114985 -0.91988,-0.134148 -1.4948,-0.479102 -0.57492,-0.344954 -0.82406,-0.919877 -0.24913,-0.594088 -0.24913,-1.513965 v -9.639545 h 4.84852 v 2.855452 h 2.39551 v 3.047093 h -2.39551 v 2.932108 q 0,0.383282 0.13415,0.498267 0.13415,0.09582 0.57492,0.114984 h 2.81713 v 3.21957 z" />
    <path
       inkscape:connector-curvature="0"
       id="path4618"
       style="font-style:normal;font-variant:normal;font-weight:normal;font-stretch:normal;font-size:medium;line-height:125%;font-family:FontAwesome;-inkscape-font-specification:FontAwesome;letter-spacing:0px;word-spacing:0px;fill:#333333;fill-opacity:1;stroke:none;stroke-width:0.19655493px;stroke-linecap:butt;stroke-linejoin:miter;stroke-opacity:1"
       d="m 136.95825,33.722911 q 0,0.785728 -0.17248,1.322323 -0.17248,0.517431 -0.61325,0.843221 -0.44078,0.306625 -1.18818,0.459938 -0.72823,0.134149 -1.87808,0.134149 H 121.5503 v -2.970436 h 10.11865 q 0.57493,0 0.57493,-0.459939 0,-0.517431 -0.57493,-0.517431 h -6.32415 q -1.93558,0 -2.87462,-0.536595 -0.91988,-0.555759 -0.91988,-1.897246 v -0.900713 q 0,-0.7474 0.22997,-1.226503 0.22997,-0.498267 0.70908,-0.785728 0.49826,-0.287462 1.24566,-0.402447 0.7474,-0.114984 1.78226,-0.114984 h 10.15698 v 2.9896 h -8.64301 q -0.63242,0 -0.63242,0.517431 0,0.498267 0.63242,0.498267 h 6.07502 q 1.14985,0 1.87808,0.153313 0.7474,0.153313 1.18818,0.459938 0.44077,0.306626 0.61325,0.785729 0.17248,0.479102 0.17248,1.130682 z" />
    <g
       transform="matrix(-0.19655493,0,0,0.19655493,49.517599,0.13267952)"
       style="font-style:normal;font-variant:normal;font-weight:normal;font-stretch:normal;font-size:40px;line-height:125%;font-family:FontAwesome;-inkscape-font-specification:FontAwesome;letter-spacing:0px;word-spacing:0px;fill:#fb3d08;fill-opacity:1;stroke:none;stroke-width:1px;stroke-linecap:butt;stroke-linejoin:miter;stroke-opacity:1"
       id="text4201-6-1-4">
      <path
         d="m -292.49064,184.93488 q -6.5325,0 -11.2125,-0.8775 -4.5825,-0.8775 -7.605,-2.925 -2.925,-2.145 -4.3875,-5.46 -1.365,-3.4125 -1.365,-8.385 v -16.965 q 0,-8.0925 5.7525,-11.7 5.7525,-3.6075 17.16,-3.6075 h 35.7825 q 9.555,0 13.5525,3.2175 3.9975,3.2175 3.9975,10.0425 v 3.9975 q 0,3.8025 -0.78,6.24 -0.78,2.4375 -2.73,3.9 -1.95,1.365 -5.46,1.95 -3.4125,0.4875 -8.775,0.4875 h -33.93 q 0,1.6575 0.2925,2.73 0.2925,0.975 1.0725,1.4625 0.78,0.4875 2.145,0.6825 1.4625,0.0975 3.705,0.0975 h 41.4375 v 15.1125 z m 1.2675,-34.6125 q -2.535,0 -2.535,2.2425 0,2.535 2.535,2.535 h 24.18 q 2.2425,0 2.2425,-2.535 0,-2.2425 -2.2425,-2.2425 z"
         style="font-style:normal;font-variant:normal;font-weight:normal;font-stretch:normal;font-size:97.5px;font-family:Vipnagorgialla;-inkscape-font-specification:Vipnagorgialla;letter-spacing:-3.30999994px;fill:#fb3d08;fill-opacity:1"
         id="path4613"
         inkscape:connector-curvature="0" />
    </g>
    <path
       inkscape:connector-curvature="0"
       id="path828"
       style="font-style:normal;font-variant:normal;font-weight:normal;font-stretch:normal;font-size:4.17679214px;line-height:1.25;font-family:Vipnagorgialla;-inkscape-font-specification:Vipnagorgialla;letter-spacing:-0.17689943px;word-spacing:0px;fill:#fb3d08;fill-opacity:1;stroke:none;stroke-width:0.19655493px;stroke-linecap:butt;stroke-linejoin:miter;stroke-opacity:1"
       d="m 138.09385,36.482539 h -0.6307 v -1.065082 h 0.6307 z m 2.13016,0 h -1.93385 v -1.065082 h 1.93385 z" />
    <path
       inkscape:connector-curvature="0"
       id="path830"
       style="font-style:normal;font-variant:normal;font-weight:normal;font-stretch:normal;font-size:4.17679214px;line-height:1.25;font-family:Vipnagorgialla;-inkscape-font-specification:Vipnagorgialla;letter-spacing:-0.17689943px;word-spacing:0px;fill:#fb3d08;fill-opacity:1;stroke:none;stroke-width:0.19655493px;stroke-linecap:butt;stroke-linejoin:miter;stroke-opacity:1"
       d="m 140.22401,32.881269 h -1.2948 q -0.0585,0 -0.0961,0.02924 -0.0418,0.02506 -0.0418,0.09189 v 1.031668 q 0,0.05012 0.0418,0.07518 0.0376,0.02506 0.0961,0.02506 h 1.2948 v 1.056728 h -2.13851 v -1.056728 h 0.13783 q -0.13783,-0.09189 -0.13783,-0.405149 v -0.839535 q 0,-0.279845 0.0292,-0.480331 0.0292,-0.200486 0.10442,-0.329967 0.071,-0.12948 0.20049,-0.187955 0.1253,-0.06265 0.32579,-0.06265 h 1.47858 z" />
    <path
       inkscape:connector-curvature="0"
       id="path832"
       style="font-style:normal;font-variant:normal;font-weight:normal;font-stretch:normal;font-size:4.17679214px;line-height:1.25;font-family:Vipnagorgialla;-inkscape-font-specification:Vipnagorgialla;letter-spacing:-0.17689943px;word-spacing:0px;fill:#fb3d08;fill-opacity:1;stroke:none;stroke-width:0.19655493px;stroke-linecap:butt;stroke-linejoin:miter;stroke-opacity:1"
       d="m 140.22401,31.615348 h -2.09675 q -0.20883,0 -0.33832,-0.0543 -0.12948,-0.05848 -0.20048,-0.183779 -0.0752,-0.125304 -0.10024,-0.32579 -0.0251,-0.204663 -0.0251,-0.497038 v -0.76853 h 0.55552 v 0.542983 q 0,0.07936 0.004,0.125304 0.004,0.04594 0.0209,0.071 0.0125,0.02088 0.0418,0.02924 0.0251,0.0042 0.071,0.0042 h 0.0627 v -0.772707 h 0.55552 v 0.772707 h 1.44934 z" />
    <path
       inkscape:connector-curvature="0"
       id="path834"
       style="font-style:normal;font-variant:normal;font-weight:normal;font-stretch:normal;font-size:4.17679214px;line-height:1.25;font-family:Vipnagorgialla;-inkscape-font-specification:Vipnagorgialla;letter-spacing:-0.17689943px;word-spacing:0px;fill:#fb3d08;fill-opacity:1;stroke:none;stroke-width:0.19655493px;stroke-linecap:butt;stroke-linejoin:miter;stroke-opacity:1"
       d="m 140.22401,28.663243 q 0,0.292376 -0.0251,0.497038 -0.0251,0.200486 -0.0961,0.329967 -0.071,0.125304 -0.20049,0.183779 -0.12948,0.0543 -0.33832,0.0543 h -0.81865 q -0.20466,0 -0.32997,-0.0543 -0.12948,-0.05847 -0.20048,-0.183779 -0.0752,-0.129481 -0.10025,-0.329967 -0.0292,-0.204662 -0.0292,-0.497038 v -1.244684 q 0,-0.288199 0.0292,-0.488685 0.0251,-0.200486 0.10025,-0.325789 0.071,-0.129481 0.20048,-0.187956 0.12948,-0.05848 0.32997,-0.05848 h 0.81865 q 0.20466,0 0.33414,0.05848 0.12949,0.0543 0.20049,0.179602 0.071,0.125304 0.10024,0.329967 0.0251,0.200486 0.0251,0.492861 z m -1.2948,-1.248861 q -0.0752,0 -0.10442,0.03342 -0.0334,0.03341 -0.0334,0.100243 v 0.973192 q 0,0.07518 0.0376,0.112774 0.0376,0.03759 0.10024,0.03759 h 0.45945 q 0.0835,0 0.10859,-0.02506 0.0251,-0.02924 0.0251,-0.125304 v -0.985723 q 0,-0.071 -0.0251,-0.09607 -0.0292,-0.02506 -0.10859,-0.02506 z" />
    <g
       style="font-style:normal;font-variant:normal;font-weight:normal;font-stretch:normal;font-size:40px;line-height:125%;font-family:FontAwesome;-inkscape-font-specification:FontAwesome;letter-spacing:0px;word-spacing:0px;fill:#000000;fill-opacity:1;stroke:none;stroke-width:1px;stroke-linecap:butt;stroke-linejoin:miter;stroke-opacity:1"
       id="flowRoot4562" />
  </g>
</svg>
